<?xml version="1.0" standalone="no"?>
<!DOCTYPE svg PUBLIC "-//W3C//DTD SVG 20010904//EN"
 "http://www.w3.org/TR/2001/REC-SVG-20010904/DTD/svg10.dtd">
<svg version="1.0" xmlns="http://www.w3.org/2000/svg"
 width="50.000000pt" height="50.000000pt" viewBox="0 0 50.000000 50.000000"
 preserveAspectRatio="xMidYMid meet">

<g transform="translate(0.000000,50.000000) scale(0.100000,-0.100000)"
fill="#000000" stroke="none">
<path d="M79 431 l-29 -29 0 -157 0 -157 29 -29 29 -29 142 0 142 0 29 29 29
29 0 157 0 157 -29 29 -29 29 -142 0 -142 0 -29 -29z m331 -11 c18 -18 20 -33
20 -140 0 -164 4 -160 -180 -160 -184 0 -180 -4 -180 160 0 164 -4 160 180
160 127 0 142 -2 160 -20z m-160 -320 c106 0 140 3 158 16 21 14 22 14 22 -5
0 -12 -9 -30 -20 -41 -18 -18 -33 -20 -160 -20 -127 0 -142 2 -160 20 -11 11
-20 29 -20 41 0 19 1 19 22 5 18 -13 52 -16 158 -16z"/>
<path d="M268 293 c-3 -57 -6 -68 -22 -71 -10 -2 -22 2 -27 9 -4 7 -11 10 -15
6 -11 -11 17 -37 40 -37 36 0 46 20 46 92 0 88 -18 89 -22 1z"/>
</g>
</svg>
